<svg width="32" height="32" viewBox="0 0 32 32" fill="none" xmlns="http://www.w3.org/2000/svg">
<path fill-rule="evenodd" clip-rule="evenodd" d="M24 1.5022C27.5897 1.50235 30.5 4.41244 30.5 8.0022V18.9983C30.5 22.0358 28.0374 24.4981 25 24.4983H24.4971V24.9973C24.4971 28.0348 22.0345 30.4972 18.9971 30.4973H7C3.96244 30.4973 1.5 28.0349 1.5 24.9973V13.0012C1.50008 9.96372 3.96249 7.50122 7 7.50122H7.50293V7.0022C7.50293 3.96469 9.96545 1.5023 13.0029 1.5022H24ZM7 10.5012C5.61934 10.5012 4.50008 11.6206 4.5 13.0012V24.9973C4.5 26.378 5.61929 27.4973 7 27.4973H18.9971C20.3777 27.4972 21.4971 26.3779 21.4971 24.9973V13.0012C21.497 11.6207 20.3776 10.5014 18.9971 10.5012H7ZM13.0029 4.5022C11.6223 4.5023 10.5029 5.62155 10.5029 7.0022V7.50122H18.9971C22.0345 7.50138 24.497 9.96382 24.4971 13.0012V21.4983H25C26.3806 21.4981 27.5 20.3789 27.5 18.9983V8.0022C27.5 6.0693 25.9329 4.50235 24 4.5022H13.0029Z" fill="black"/>
</svg>
