<svg width="32" height="32" viewBox="0 0 32 32" fill="none" xmlns="http://www.w3.org/2000/svg">
<path d="M23.8471 30.5C23.4147 30.5 22.9227 30.3838 22.4753 30.1513L16.0043 26.9985L9.48858 30.1513C9.07109 30.3692 8.60888 30.4855 8.11684 30.4855C7.49061 30.4855 6.8793 30.2966 6.38726 29.9334C5.47774 29.265 5.01552 28.1172 5.22427 27.0566L6.55127 20.3297L1.43708 15.6949C0.646838 14.9103 0.348635 13.7916 0.646838 12.731L0.661749 12.7019C1.0345 11.6122 1.95893 10.8567 3.0772 10.7114L10.1744 9.44739L13.3503 3.14178C13.8573 2.13928 14.901 1.5 16.0043 1.5C17.1524 1.5 18.2259 2.16834 18.6733 3.15631L21.8491 9.44739L28.9464 10.6533C30.0646 10.8131 31.004 11.5977 31.3171 12.6728C31.6749 13.7189 31.3767 14.8667 30.5716 15.6513L30.5567 15.6658L25.4723 20.3442L26.7546 27.0857C26.9633 28.1608 26.516 29.2505 25.6065 29.9334C25.0846 30.2966 24.4733 30.5 23.8471 30.5Z" fill="black"/>
</svg>
